# 3ds Max Wavefront OBJ Exporter v0.97b - (c)2007 guruware
# File Created: 13.05.2015 15:02:54

mtllib Hueco.mtl

#
# object Plane002
#

v  -2.5000 0.0000 4.0000
v  -2.2340 0.0000 4.0000
v  -2.2340 0.0000 0.3000
v  -2.5000 0.0000 0.3000
v  2.2340 0.0000 4.0000
v  2.2340 0.0000 0.3000
v  2.5000 0.0000 4.0000
v  2.5000 0.0000 0.3000
v  -2.2340 0.0000 -0.3000
v  -2.5000 0.0000 -0.3000
v  2.5000 0.0000 -0.3000
v  2.2340 0.0000 -0.3000
v  -2.2340 0.0000 -4.0000
v  -2.5000 0.0000 -4.0000
v  2.2340 0.0000 -4.0000
v  2.5000 0.0000 -4.0000
# 16 vertices

vn 0.0000 1.0000 -0.0000
# 1 vertex normals

vt 0.0000 0.0000 0.0000
vt 0.3333 0.0000 0.0000
vt 0.3333 0.3333 0.0000
vt 0.0000 0.3333 0.0000
vt 0.6667 0.0000 0.0000
vt 0.6667 0.3333 0.0000
vt 1.0000 0.0000 0.0000
vt 1.0000 0.3333 0.0000
vt 0.3333 0.6667 0.0000
vt 0.0000 0.6667 0.0000
vt 1.0000 0.6667 0.0000
vt 0.6667 0.6667 0.0000
vt 0.3333 1.0000 0.0000
vt 0.0000 1.0000 0.0000
vt 0.6667 1.0000 0.0000
vt 1.0000 1.0000 0.0000
# 16 texture coords

g Plane002
usemtl wire_027177088
s 1
f 1/1/1 2/2/1 3/3/1 4/4/1 
f 2/2/1 5/5/1 6/6/1 3/3/1 
f 5/5/1 7/7/1 8/8/1 6/6/1 
f 4/4/1 3/3/1 9/9/1 10/10/1 
f 6/6/1 8/8/1 11/11/1 12/12/1 
f 10/10/1 9/9/1 13/13/1 14/14/1 
f 9/9/1 12/12/1 15/15/1 13/13/1 
f 12/12/1 11/11/1 16/16/1 15/15/1 
# 8 polygons

