# 3ds Max Wavefront OBJ Exporter v0.97b - (c)2007 guruware
# File Created: 13.05.2015 15:07:42

mtllib Obstáculo.mtl

#
# object Plane003
#

v  2.5000 0.0000 4.0000
v  2.2340 0.0000 4.0000
v  2.2340 0.0000 0.3000
v  2.5000 0.0000 0.3000
v  -2.2330 0.0000 4.0000
v  -2.2330 0.0000 0.3000
v  -1.4885 0.0000 0.3000
v  -0.7440 0.0000 0.3000
v  0.0005 0.0000 0.3000
v  0.7450 0.0000 0.3000
v  1.4895 0.0000 0.3000
v  -2.5000 0.0000 4.0000
v  -2.5000 0.0000 0.3000
v  2.2340 0.0000 -0.3000
v  2.5000 0.0000 -0.3000
v  -2.5000 0.0000 -0.3000
v  -2.2330 0.0000 -0.3000
v  2.2340 0.0000 -4.0000
v  2.5000 0.0000 -4.0000
v  -1.4885 0.0000 -0.3000
v  -2.2330 0.0000 -4.0000
v  -0.7440 0.0000 -0.3000
v  0.0005 0.0000 -0.3000
v  0.7450 0.0000 -0.3000
v  1.4895 0.0000 -0.3000
v  -2.5000 0.0000 -4.0000
v  0.0005 0.2500 0.3000
v  0.0005 0.2500 -0.3000
v  0.7450 0.2500 -0.3000
v  0.7450 0.2500 0.3000
v  -2.2330 0.2000 0.3000
v  -2.2330 0.2000 -0.3000
v  -1.4885 0.2000 -0.3000
v  -1.4885 0.2000 0.3000
v  -1.4885 0.3000 0.3000
v  -1.4885 0.3000 -0.3000
v  -0.7440 0.3000 -0.3000
v  -0.7440 0.3000 0.3000
v  -0.7440 0.4461 0.3000
v  -0.7440 0.4461 -0.3000
v  0.0005 0.4461 -0.3000
v  0.0005 0.4461 0.3000
v  2.2340 0.1200 -0.3000
v  2.2340 0.1200 0.3000
v  1.4895 0.1200 0.3000
v  1.4895 0.1200 -0.3000
v  1.4895 0.1500 -0.3000
v  1.4895 0.1500 0.3000
v  0.7450 0.1500 0.3000
v  0.7450 0.1500 -0.3000
# 50 vertices

vn 0.0000 1.0000 -0.0000
vn -0.0000 1.0000 -0.0000
vn 0.0000 0.0000 1.0000
vn -1.0000 0.0000 -0.0000
vn 0.0000 0.0000 -1.0000
vn 1.0000 0.0000 -0.0000
vn 1.0000 0.0000 0.0000
# 7 vertex normals

vt 0.0000 0.0000 0.0000
vt 0.3333 0.0000 0.0000
vt 0.3333 0.3333 0.0000
vt 0.0000 0.3333 0.0000
vt 0.6667 0.0000 0.0000
vt 0.6667 0.3333 0.0000
vt 0.6111 0.3333 0.0000
vt 0.5556 0.3333 0.0000
vt 0.5000 0.3333 0.0000
vt 0.4444 0.3333 0.0000
vt 0.3889 0.3333 0.0000
vt 1.0000 0.0000 0.0000
vt 1.0000 0.3333 0.0000
vt 0.3333 0.6667 0.0000
vt 0.0000 0.6667 0.0000
vt 1.0000 0.6667 0.0000
vt 0.6667 0.6667 0.0000
vt 0.3333 1.0000 0.0000
vt 0.0000 1.0000 0.0000
vt 0.6111 0.6667 0.0000
vt 0.6667 1.0000 0.0000
vt 0.5556 0.6667 0.0000
vt 0.5000 0.6667 0.0000
vt 0.4444 0.6667 0.0000
vt 0.3889 0.6667 0.0000
vt 1.0000 1.0000 0.0000
# 26 texture coords

g Plane003
usemtl wire_027177088
s 1
f 4/4/1 3/3/1 2/2/1 1/1/1 
f 7/7/1 6/6/1 5/5/1 2/2/1 
f 9/9/1 8/8/1 7/7/1 2/2/1 
f 11/11/1 10/10/1 9/9/1 2/2/1 
f 11/11/1 2/2/1 3/3/1 
f 6/6/1 13/13/1 12/12/1 5/5/1 
f 15/15/1 14/14/1 3/3/1 4/4/1 
f 17/17/1 16/16/1 13/13/1 6/6/1 
f 19/19/1 18/18/1 14/14/1 15/15/1 
f 22/22/1 21/21/1 17/17/1 20/20/1 
f 24/24/1 21/21/1 22/22/1 23/23/1 
f 14/14/1 21/21/1 24/24/1 25/25/1 
f 21/21/1 14/14/1 18/18/1 
f 21/21/1 26/26/1 16/16/1 17/17/1 
s off
f 30/10/1 29/24/1 28/23/1 27/9/1 
f 34/7/2 33/20/2 32/17/2 31/6/2 
f 38/8/1 37/22/1 36/20/1 35/7/1 
f 42/9/1 41/23/1 40/22/1 39/8/1 
f 46/25/1 45/11/1 44/3/1 43/14/1 
f 50/24/1 49/10/1 48/11/1 47/25/1 
f 34/7/3 31/6/3 6/6/3 7/7/3 
f 31/6/4 32/17/4 17/17/4 6/6/4 
f 32/17/5 33/20/5 20/20/5 17/17/5 
f 35/7/3 34/7/3 7/7/3 8/8/3 
f 38/8/3 35/7/3 8/8/3 
f 33/20/5 37/22/5 22/22/5 20/20/5 
f 33/20/5 36/20/5 37/22/5 
f 39/8/3 38/8/3 8/8/3 9/9/3 
f 9/9/3 27/9/3 42/9/3 39/8/3 
f 41/23/5 28/23/5 23/23/5 22/22/5 
f 22/22/5 37/22/5 40/22/5 41/23/5 
f 49/10/3 27/9/3 9/9/3 10/10/3 
f 49/10/3 30/10/3 27/9/3 
f 29/24/5 50/24/5 24/24/5 23/23/5 
f 28/23/5 29/24/5 23/23/5 
f 43/14/6 44/3/6 3/3/6 14/14/6 
f 44/3/3 45/11/3 11/11/3 3/3/3 
f 46/25/5 43/14/5 14/14/5 25/25/5 
f 45/11/3 49/10/3 10/10/3 11/11/3 
f 45/11/3 48/11/3 49/10/3 
f 47/25/5 46/25/5 25/25/5 24/24/5 
f 50/24/5 47/25/5 24/24/5 
f 45/11/7 46/25/7 47/25/7 48/11/7 
f 49/10/7 50/24/7 29/24/7 30/10/7 
f 27/9/7 28/23/7 41/23/7 42/9/7 
f 37/22/4 38/8/4 39/8/4 40/22/4 
f 33/20/4 34/7/4 35/7/4 36/20/4 
# 39 polygons - 8 triangles

